<svg width="33" height="34" viewBox="0 0 33 34" fill="none" xmlns="http://www.w3.org/2000/svg">
<path d="M8.02183 19.2045L20.9208 6.01241C21.0593 5.87069 22.1649 4.73994 23.9148 4.12783C26.356 3.32726 28.8444 3.98611 30.8257 6.01241C32.8526 8.03872 33.4511 10.5354 32.6684 13.0321C32.1156 14.8232 30.9642 16.0475 30.8257 16.1892L16.9597 30.3703C14.5642 32.8203 8.57464 35.9773 3.04652 30.3703C-2.43589 24.7633 0.696708 18.5909 3.04652 16.1892L17.9267 0.924032C18.4795 0.358656 19.3552 0.358656 19.908 0.924032C20.4608 1.48941 20.4608 2.38496 19.908 2.95034L5.0735 18.2155C4.84353 18.4039 0.189596 23.3506 5.0735 28.3455C9.81883 33.1987 14.4713 28.8641 14.9784 28.3455L28.8444 14.1161C28.8444 14.1161 29.6272 13.3156 29.9957 12.1848C30.4571 10.6771 30.1343 9.35793 28.8444 8.03872C26.0803 5.21184 23.4077 7.56682 22.902 8.03872L10.0031 21.1841C9.54169 21.656 9.22032 22.4566 10.0031 23.2571C10.7859 24.0577 11.523 23.6808 11.9844 23.2571L20.9222 14.1161C21.475 13.5975 22.3964 13.5975 22.9035 14.1161C23.4563 14.6815 23.4563 15.6238 22.9035 16.1892L13.9657 25.2819C12.7215 26.5077 10.1874 27.4967 8.0233 25.2819C5.81205 23.0672 6.77763 20.4287 8.02183 19.2045Z" fill="white"/>
</svg>
