<svg width="37" height="37" viewBox="0 0 37 37" fill="none" xmlns="http://www.w3.org/2000/svg">
<path fill-rule="evenodd" clip-rule="evenodd" d="M36.151 9.16974C36.4082 8.32729 36.151 7.70825 34.9269 7.70825H30.8791C29.8499 7.70825 29.3754 8.24301 29.1181 8.83268C29.1181 8.83268 27.0595 13.7609 24.1434 16.9621C23.2001 17.8888 22.7712 18.1837 22.2566 18.1837C21.9993 18.1837 21.6132 17.8888 21.6132 17.0464V9.16974C21.6132 8.1588 21.3282 7.70825 20.4704 7.70825H14.1095C13.4664 7.70825 13.0795 8.17744 13.0795 8.62212C13.0795 9.58047 14.5375 9.80148 14.6878 12.4973V18.3522C14.6878 19.6358 14.4518 19.8686 13.9372 19.8686C12.5649 19.8686 9.22698 14.9183 7.24727 9.25394C6.85929 8.15298 6.47016 7.70825 5.43565 7.70825H1.38784C0.231318 7.70825 0 8.24301 0 8.83268C0 9.88576 1.3723 15.1089 6.38965 22.0168C9.73453 26.7343 14.4472 29.2916 18.7356 29.2916C21.3086 29.2916 21.627 28.7236 21.627 27.7453V24.1797C21.627 23.0438 21.8707 22.817 22.6855 22.817C23.2858 22.817 24.315 23.112 26.7165 25.3865C29.4611 28.0823 29.9136 29.2916 31.4572 29.2916H35.5052C36.6616 29.2916 37.2399 28.7236 36.9063 27.6027C36.5412 26.4856 35.2309 24.8648 33.4922 22.9435C32.5487 21.8483 31.1335 20.6689 30.7046 20.079C30.1043 19.321 30.2759 18.984 30.7046 18.3101C30.7046 18.3101 35.6364 11.4864 36.151 9.16974Z" fill="white"/>
</svg>
